M48
; DRILL file {KiCad 9.0.7} date 2026-02-04T20:51:06-0800
; FORMAT={-:-/ absolute / metric / decimal}
; #@! TF.CreationDate,2026-02-04T20:51:06-08:00
; #@! TF.GenerationSoftware,Kicad,Pcbnew,9.0.7
; #@! TF.FileFunction,NonPlated,1,2,NPTH
FMAT,2
METRIC
; #@! TA.AperFunction,NonPlated,NPTH,ComponentDrill
T1C1.700
; #@! TA.AperFunction,NonPlated,NPTH,ComponentDrill
T2C4.000
%
G90
G05
T1
X100.53Y-69.6
X100.53Y-88.6
X100.53Y-107.7
X100.53Y-126.8
X110.69Y-69.6
X110.69Y-88.6
X110.69Y-107.7
X110.69Y-126.8
X119.53Y-107.7
X119.53Y-126.78
X119.569Y-69.587
X119.569Y-88.611
X129.69Y-107.7
X129.69Y-126.78
X129.729Y-69.587
X129.729Y-88.611
X138.62Y-126.8
X138.63Y-88.6
X138.63Y-107.7
X148.78Y-126.8
X148.79Y-88.6
X148.79Y-107.7
T2
X105.61Y-69.6
X105.61Y-88.6
X105.61Y-107.7
X105.61Y-126.8
X124.61Y-107.7
X124.61Y-126.78
X124.649Y-69.587
X124.649Y-88.611
X143.7Y-126.8
X143.71Y-88.6
X143.71Y-107.7
M30
