M48
; DRILL file {KiCad 9.0.7} date 2026-02-04T20:51:06-0800
; FORMAT={-:-/ absolute / metric / decimal}
; #@! TF.CreationDate,2026-02-04T20:51:06-08:00
; #@! TF.GenerationSoftware,Kicad,Pcbnew,9.0.7
; #@! TF.FileFunction,Plated,1,2,PTH
FMAT,2
METRIC
; #@! TA.AperFunction,Plated,PTH,ViaDrill
T1C0.300
; #@! TA.AperFunction,Plated,PTH,ComponentDrill
T2C0.800
; #@! TA.AperFunction,Plated,PTH,ComponentDrill
T3C0.889
; #@! TA.AperFunction,Plated,PTH,ComponentDrill
T4C1.000
; #@! TA.AperFunction,Plated,PTH,ComponentDrill
T5C1.500
%
G90
G05
T1
X129.2Y-93.2
X131.265Y-94.135
X133.106Y-92.894
X136.829Y-118.0
X142.1Y-85.4
X153.8Y-125.4
X155.7Y-123.56
X157.8Y-122.7
X170.465Y-72.418
X171.0Y-130.9
T2
X159.79Y-92.25
X159.79Y-95.8
X159.79Y-99.35
X159.79Y-102.9
X159.79Y-106.45
X159.79Y-110.0
X159.79Y-113.55
X159.79Y-117.1
X159.79Y-120.65
X159.79Y-124.2
X159.79Y-127.75
X159.79Y-131.3
X167.41Y-92.25
X167.41Y-95.8
X167.41Y-99.35
X167.41Y-102.9
X167.41Y-106.45
X167.41Y-110.0
X167.41Y-113.55
X167.41Y-117.1
X167.41Y-120.65
X167.41Y-124.2
X167.41Y-127.75
X167.41Y-131.3
T3
X156.48Y-59.848
X156.48Y-62.389
X156.48Y-64.928
X156.48Y-67.468
X156.48Y-70.008
X156.48Y-72.548
X156.48Y-75.088
X171.72Y-59.848
X171.72Y-62.389
X171.72Y-64.928
X171.72Y-67.468
X171.72Y-70.008
X171.72Y-72.548
X171.72Y-75.088
T4
X141.2Y-62.55
X141.2Y-77.05
X143.7Y-77.05
X146.2Y-62.55
X146.2Y-77.05
T5
X101.8Y-67.06
X101.8Y-86.06
X101.8Y-105.16
X101.8Y-124.26
X108.15Y-64.52
X108.15Y-83.52
X108.15Y-102.62
X108.15Y-121.72
X120.8Y-105.16
X120.8Y-124.24
X120.839Y-67.047
X120.839Y-86.07
X127.15Y-102.62
X127.15Y-121.7
X127.189Y-64.507
X127.189Y-83.53
X139.89Y-124.26
X139.9Y-86.06
X139.9Y-105.16
X146.24Y-121.72
X146.25Y-83.52
X146.25Y-102.62
T5
G00X138.1Y-70.2
M15
G01X138.1Y-68.9
M16
G05
G00X149.3Y-70.2
M15
G01X149.3Y-68.9
M16
G05
M30
